<?xml version="1.0" standalone="no"?>
<!DOCTYPE svg PUBLIC "-//W3C//DTD SVG 20010904//EN"
 "http://www.w3.org/TR/2001/REC-SVG-20010904/DTD/svg10.dtd">
<svg version="1.0" xmlns="http://www.w3.org/2000/svg"
 width="300.000000pt" height="300.000000pt" viewBox="0 0 300.000000 300.000000"
 preserveAspectRatio="xMidYMid meet">
<metadata>
Created by potrace 1.10, written by Peter Selinger 2001-2011
</metadata>
<g transform="translate(0.000000,300.000000) scale(0.100000,-0.100000)"
fill="#000000">
 <style>
    path { stroke: white; stroke-width: 3; fill: none; }
  </style>
<path d="M1230 2299 c0 -13 20 -103 45 -198 24 -96 42 -178 39 -182 -2 -4 3
-10 12 -13 8 -3 13 -2 11 2 -8 12 -98 394 -94 398 7 7 111 -24 172 -51 33 -15
56 -22 50 -16 -14 14 -161 72 -201 78 -31 5 -34 3 -34 -18z"/>
<path d="M1302 2264 c57 -62 204 -296 274 -439 116 -237 204 -540 191 -658 -4
-29 -4 -45 0 -37 3 8 23 33 43 55 62 65 167 291 177 380 5 45 1 60 -32 125
-58 116 -139 232 -227 325 -44 47 -76 85 -70 85 18 0 159 -156 212 -235 29
-44 77 -130 107 -191 l53 -113 33 30 c17 17 51 42 75 56 24 14 41 28 38 30 -5
5 -88 -49 -123 -80 l-23 -20 -16 39 c-85 207 -232 404 -391 523 -73 55 -150
100 -139 82 10 -15 11 -15 -79 23 -44 18 -91 37 -105 41 l-25 7 27 -28z m278
-104 c54 -37 80 -60 66 -60 -3 0 -32 19 -65 43 -32 23 -67 48 -77 55 -17 11
-17 12 -1 8 9 -3 44 -24 77 -46z m-129 23 c179 -88 357 -280 472 -509 38 -75
39 -97 10 -177 -27 -75 -97 -225 -113 -241 -15 -15 -20 -4 -39 85 -64 296
-152 501 -345 802 -39 61 -38 66 15 40z"/>
<path d="M1285 2208 c23 -76 65 -264 65 -291 0 -14 7 -30 16 -38 9 -7 31 -43
50 -81 19 -37 36 -68 39 -68 6 0 -45 113 -56 125 -5 5 -9 23 -9 39 0 18 4 26
9 21 10 -12 126 -270 166 -370 15 -38 33 -81 40 -95 30 -58 103 -250 120 -318
15 -58 22 -71 35 -66 8 3 35 13 60 21 25 9 56 26 71 39 32 31 46 30 167 -6 56
-17 110 -30 121 -30 11 0 55 11 98 25 l78 24 37 -25 c49 -35 64 -27 27 14
l-30 33 -105 -31 -104 -31 -118 34 c-64 19 -136 37 -160 40 -41 5 -45 3 -89
-44 -25 -27 -49 -49 -54 -49 -4 0 -11 21 -14 48 -44 315 -96 489 -212 712 -53
101 -237 390 -249 390 -4 0 -3 -10 1 -22z m112 -205 c7 -10 22 -35 32 -55 l18
-37 -33 22 c-19 12 -34 30 -34 39 0 9 -3 23 -6 32 -8 21 5 20 23 -1z m129
-230 c9 -21 28 -65 44 -98 34 -73 52 -135 39 -135 -5 0 -9 6 -9 14 0 12 -16
50 -72 176 -11 25 -25 53 -30 63 -6 11 -5 17 2 17 6 0 18 -17 26 -37z"/>
<path d="M960 2024 c0 -4 7 -27 15 -53 8 -25 21 -74 29 -109 13 -58 13 -63 -2
-57 -65 27 -164 58 -223 70 -61 13 -249 21 -249 11 0 -1 50 -52 111 -112 127
-125 248 -274 332 -406 l57 -91 0 270 c0 215 -3 280 -16 322 -8 29 -13 55 -11
58 3 2 18 -18 33 -44 l29 -48 3 -292 3 -292 81 -31 c44 -17 83 -28 86 -26 7 7
-37 348 -54 424 -8 34 -20 74 -26 90 -12 26 -72 125 -90 147 -22 27 -77 117
-83 135 -5 17 -2 20 22 20 15 0 48 -5 72 -11 24 -5 46 -8 48 -6 4 5 -130 37
-153 37 -8 0 -14 -3 -14 -6z m-134 -194 c40 -10 94 -29 120 -42 l49 -23 3
-172 c1 -95 -1 -173 -6 -173 -5 0 -29 28 -53 63 -62 88 -185 232 -252 296 -76
72 -75 85 6 76 34 -4 94 -16 133 -25z m313 -187 c18 -59 32 -150 55 -345 5
-45 4 -48 -18 -48 -13 0 -33 8 -44 18 -20 16 -21 28 -23 217 -2 267 -2 267 30
158z"/>
<path d="M1090 1881 c43 -65 104 -161 136 -212 31 -52 85 -137 119 -189 86
-131 128 -211 160 -303 16 -43 29 -76 32 -74 8 9 -92 443 -134 577 -67 216
-60 206 -148 246 -63 29 -206 74 -236 74 -5 0 27 -53 71 -119z m76 45 c76 -26
133 -58 148 -81 26 -39 132 -425 117 -425 -7 0 -216 323 -288 447 -47 79 -45
83 23 59z"/>
<path d="M465 1900 c-4 -6 -3 -16 2 -23 5 -7 18 -40 28 -74 11 -34 22 -57 26
-51 8 13 107 -297 107 -335 0 -22 -15 -41 -72 -88 -39 -34 -92 -72 -118 -85
-33 -17 -48 -31 -48 -44 0 -11 5 -20 10 -20 18 0 10 -24 -15 -45 -23 -18 -24
-23 -15 -55 5 -19 10 -47 10 -62 0 -29 -7 -31 -97 -32 -13 0 -23 -4 -23 -8 0
-4 7 -8 15 -8 21 0 19 -6 -12 -45 -24 -30 -35 -35 -84 -41 -56 -6 -57 -7 -61
-40 l-4 -34 1418 0 c780 0 1418 3 1418 6 0 3 -5 14 -11 25 -10 19 -19 20 -102
18 l-92 -3 3 49 c2 28 7 54 12 60 12 15 -1545 8 -1573 -7 -12 -6 -64 -38 -115
-71 -119 -76 -136 -75 -249 12 l-79 61 -129 0 -129 0 -58 -45 -57 -46 -93 3
-93 3 80 8 c110 11 115 13 160 53 l40 37 -35 -6 c-19 -3 -55 -2 -80 3 -29 5
34 8 180 9 l225 1 84 -65 c57 -45 93 -65 112 -65 18 0 63 23 124 65 54 36 107
68 119 70 11 3 362 4 778 3 416 -2 755 -2 753 0 -2 2 8 20 21 39 13 20 24 39
24 42 0 3 -75 4 -167 1 -197 -6 -477 -6 -653 0 -92 3 -136 0 -169 -10 -39 -14
8 -15 453 -12 342 2 496 0 496 -7 0 -8 -217 -11 -700 -11 -616 0 -700 -2 -700
-15 0 -8 -4 -15 -10 -15 -5 0 -10 7 -10 15 0 8 -4 15 -9 15 -5 0 -11 10 -15
23 -4 17 -33 34 -125 75 -125 55 -151 61 -170 38 -10 -12 -27 -8 -112 30
l-100 44 -111 -25 c-72 -16 -139 -25 -192 -24 l-81 1 40 19 c27 12 63 19 110
19 41 0 104 10 150 23 l80 23 7 79 c11 116 17 123 15 17 -1 -54 2 -92 8 -92 5
0 40 -12 77 -27 38 -14 71 -23 76 -18 4 4 2 10 -5 12 -19 7 -55 71 -47 84 4 8
3 9 -4 5 -14 -8 -36 30 -26 46 4 7 3 8 -4 4 -13 -8 -35 28 -24 39 4 5 2 6 -3
2 -6 -3 -17 3 -24 15 -10 16 -10 19 1 12 9 -6 9 -2 -2 12 -27 36 -145 168
-237 266 -51 53 -93 102 -93 109 0 17 108 -81 225 -203 64 -68 144 -168 207
-259 56 -81 104 -146 107 -144 6 7 -141 224 -210 310 -56 68 -240 253 -308
309 -39 31 -33 43 24 49 36 3 35 4 -12 5 -28 1 -55 -3 -58 -8z m245 -380 c0
-20 -38 -53 -51 -44 -9 5 -49 133 -49 155 1 21 100 -90 100 -111z m36 -32
c-43 -62 -181 -198 -230 -227 -73 -43 -83 -35 -13 11 47 32 227 213 235 238 2
6 8 8 13 4 5 -3 3 -14 -5 -26z m17 -84 c-6 -74 -21 -97 -78 -116 -89 -29 -94
-24 -34 42 22 25 54 64 71 87 17 23 34 40 38 38 4 -3 6 -26 3 -51z m64 -260
c128 -67 340 -217 270 -191 -10 4 -62 36 -115 71 -53 35 -128 81 -166 101
l-69 38 -76 -22 c-42 -13 -99 -25 -127 -28 -57 -6 -170 5 -159 15 3 4 59 10
123 14 64 3 140 13 167 21 70 22 75 21 152 -19z m323 -47 c46 -23 86 -47 87
-53 2 -6 -22 -20 -54 -30 l-58 -19 -87 59 c-49 32 -88 63 -88 68 0 5 4 6 10 3
5 -3 18 -1 27 4 33 19 77 10 163 -32z m-254 -58 c71 -45 132 -87 136 -92 7
-12 -59 -76 -78 -77 -6 0 -27 14 -45 31 -19 16 -60 48 -92 70 l-57 40 -165 0
-166 -1 -10 27 c-14 38 -1 46 83 44 46 -1 97 6 138 18 105 31 112 30 256 -60z
m442 -133 c2 -16 -1 -32 -8 -36 -10 -6 -191 -2 -198 5 -2 2 15 18 39 35 39 28
49 31 104 28 58 -3 60 -4 63 -32z m102 -11 c0 -43 -1 -45 -30 -45 -29 0 -30 2
-30 45 0 43 1 45 30 45 29 0 30 -2 30 -45z m92 40 c3 -3 2 -20 -1 -38 -9 -42
-47 -51 -57 -13 -9 36 1 56 29 56 13 0 26 -2 29 -5z m255 -28 c6 -48 -11 -66
-62 -63 -25 1 -47 4 -49 7 -3 2 -6 23 -9 47 l-4 43 60 -3 c57 -3 61 -4 64 -31z
m163 -12 c0 -33 -4 -45 -15 -45 -11 0 -15 11 -15 38 0 21 3 42 7 45 16 16 23
4 23 -38z m100 -5 c0 -49 -1 -50 -30 -50 -29 0 -30 1 -30 50 0 49 1 50 30 50
29 0 30 -1 30 -50z m68 2 c2 -32 0 -42 -12 -42 -19 0 -30 34 -22 66 10 38 31
23 34 -24z m92 -2 c0 -47 -2 -50 -25 -50 -23 0 -25 3 -25 50 0 47 2 50 25 50
23 0 25 -3 25 -50z m140 0 c0 -49 -1 -50 -30 -50 -29 0 -30 1 -30 50 0 49 1
50 30 50 29 0 30 -1 30 -50z m140 5 c0 -38 -3 -45 -20 -45 -17 0 -20 7 -20 45
0 38 3 45 20 45 17 0 20 -7 20 -45z m110 -6 c0 -49 -1 -50 -27 -47 -26 3 -28
7 -31 51 -3 46 -3 47 27 47 30 0 31 -1 31 -51z m103 24 c10 -53 -45 -76 -64
-26 -14 37 -5 53 30 53 23 0 30 -5 34 -27z m-1926 -19 c25 -20 40 -40 35 -43
-8 -5 -293 -6 -392 -2 -10 1 -8 8 10 24 59 54 68 57 189 57 l114 0 44 -36z
m853 -9 c0 -43 -1 -45 -30 -45 -29 0 -30 2 -30 45 0 43 1 45 30 45 29 0 30 -2
30 -45z m250 0 c0 -43 -1 -45 -30 -45 -29 0 -30 2 -30 45 0 43 1 45 30 45 29
0 30 -2 30 -45z m530 15 c0 -16 -4 -30 -9 -30 -10 0 -21 47 -13 55 13 13 22 3
22 -25z m-1040 -60 c0 -6 -62 -10 -165 -10 -103 0 -165 4 -165 10 0 6 62 10
165 10 103 0 165 -4 165 -10z m160 0 c-8 -5 -24 -10 -35 -10 -11 0 -27 5 -35
10 -11 7 -1 10 35 10 36 0 46 -3 35 -10z m900 0 c0 -5 -13 -10 -30 -10 -16 0
-30 5 -30 10 0 6 14 10 30 10 17 0 30 -4 30 -10z m300 0 c-20 -13 -97 -13
-105 0 -4 6 17 10 57 10 44 0 59 -3 48 -10z"/>
<path d="M1360 1857 c0 -2 16 -42 35 -89 45 -113 119 -370 149 -517 l23 -116
49 -12 c56 -15 74 -11 74 14 0 14 -2 15 -9 5 -6 -10 -11 -2 -16 25 -18 100
-93 300 -167 448 -99 197 -138 265 -138 242z m251 -614 c22 -70 21 -99 -3 -75
-6 6 -16 39 -23 74 -7 35 -16 77 -19 93 l-7 30 14 -25 c8 -14 25 -58 38 -97z"/>
<path d="M2355 1741 c-16 -3 42 -6 129 -6 86 0 147 3 134 7 -29 8 -224 8 -263
-1z"/>
<path d="M2340 1715 c-73 -16 -210 -82 -255 -123 -17 -15 -29 -26 -27 -25 2 1
30 -31 62 -71 32 -40 115 -125 184 -190 69 -65 126 -123 126 -129 0 -5 -10 -2
-22 9 l-23 19 19 -22 c10 -13 22 -20 27 -17 4 2 18 -9 30 -26 29 -38 35 -38
43 5 4 19 31 116 61 216 63 208 90 338 75 353 -16 16 -227 17 -300 1z m257
-42 c8 -22 -20 -158 -61 -291 -18 -59 -39 -126 -45 -149 -6 -24 -13 -43 -15
-43 -9 0 -306 299 -331 332 -15 21 -25 44 -22 51 7 19 135 84 198 101 30 8
101 15 162 15 92 1 109 -1 114 -16z"/>
<path d="M2658 1723 c6 -2 12 -19 12 -37 0 -41 -60 -278 -95 -374 -15 -41 -25
-76 -22 -78 11 -11 87 237 116 375 20 95 17 122 -13 120 -7 0 -6 -2 2 -6z"/>
<path d="M1203 1650 c3 -14 12 -56 20 -95 8 -38 23 -113 32 -167 l17 -96 75
-27 c41 -14 81 -29 90 -32 17 -7 -22 70 -106 207 -25 41 -65 111 -89 155 -24
44 -41 69 -39 55z m148 -313 c14 -33 8 -42 -20 -28 -19 10 -41 66 -41 101 1
19 45 -34 61 -73z"/>
<path d="M2016 1517 c-4 -20 -37 -97 -74 -170 l-68 -133 134 -43 c74 -23 135
-41 137 -39 2 2 -12 68 -31 148 -19 80 -34 152 -34 160 1 34 19 -20 56 -165
20 -82 39 -152 41 -154 1 -2 40 8 86 22 46 15 91 27 101 27 11 0 -29 46 -107
123 -68 67 -139 142 -158 166 -19 24 -43 55 -55 69 l-21 26 -7 -37z m56 -168
c30 -175 30 -159 0 -159 -42 1 -138 44 -134 61 8 33 98 199 107 196 5 -2 17
-46 27 -98z m215 -153 c-2 -5 -19 -15 -39 -22 -28 -10 -39 -10 -46 -1 -14 18
-50 145 -44 152 8 8 133 -117 129 -129z"/>
<path d="M1257 1223 c3 -32 9 -76 13 -98 7 -33 8 -35 8 -10 0 17 -3 56 -7 88
-4 31 -4 57 -1 57 3 0 44 -13 90 -28 l84 -28 27 -65 c15 -35 34 -65 43 -67 9
-2 16 -1 16 3 0 12 -60 124 -70 130 -5 3 -47 19 -92 35 -46 16 -91 31 -100 35
-15 6 -16 0 -11 -52z"/>
<path d="M845 1240 c146 -68 157 -71 136 -32 -7 13 -18 18 -29 15 -10 -2 -43
5 -73 16 -67 26 -88 26 -34 1z"/>
<path d="M1027 1215 c-12 -16 -13 -23 -4 -20 7 3 60 -15 117 -40 58 -25 109
-45 115 -45 26 0 -29 33 -106 62 -47 18 -86 38 -86 43 -1 12 3 11 96 -26 41
-16 76 -27 79 -25 3 3 -8 10 -24 17 -102 39 -157 59 -163 59 -3 0 -14 -12 -24
-25z"/>
<path d="M1296 1162 c7 -78 14 -108 14 -59 0 32 6 33 89 7 36 -11 66 -18 68
-16 4 4 -36 96 -42 96 -3 0 -34 11 -70 25 l-66 24 7 -77z"/>
<path d="M2554 1205 c-4 -11 -13 -35 -20 -54 -21 -52 -16 -71 8 -26 11 22 22
42 24 44 3 3 21 -12 42 -32 38 -37 102 -66 102 -46 0 6 5 7 12 3 7 -4 8 -3 4
4 -4 6 -14 8 -23 5 -12 -5 -14 -3 -8 7 5 8 4 11 -2 7 -5 -3 -25 8 -44 25 -19
16 -27 26 -19 22 9 -5 5 1 -9 13 -14 12 -28 20 -32 17 -4 -2 -12 4 -18 13 -9
17 -10 17 -17 -2z"/>
<path d="M2560 1119 c-15 -27 -10 -31 36 -27 l39 3 -32 23 -32 23 -11 -22z"/>
<path d="M1917 1115 c-19 -13 4 -18 153 -30 l55 -5 -65 18 c-103 29 -123 32
-143 17z"/>
<path d="M2295 1099 l-50 -17 73 -1 c39 -1 72 1 72 3 0 2 -10 10 -22 18 -20
13 -29 13 -73 -3z"/>
<path d="M1320 1081 c0 -27 3 -29 53 -35 28 -3 85 -6 125 -6 71 0 72 0 72 26
0 27 0 27 58 20 68 -7 51 8 -20 19 l-48 7 0 -31 c0 -18 -5 -31 -12 -31 -7 0
-58 14 -112 30 -55 17 -103 30 -108 30 -4 0 -8 -13 -8 -29z"/>
<path d="M1590 1059 c0 -16 8 -19 45 -19 25 0 45 4 45 8 0 5 -20 13 -45 19
-41 9 -45 9 -45 -8z"/>
<path d="M60 778 c0 -17 76 -18 1450 -18 1374 0 1450 1 1450 18 0 16 -76 17
-1450 17 -1374 0 -1450 -1 -1450 -17z"/>
</g>
</svg>
